<?xml version="1.0" encoding="utf-8"?>
<!-- Generator: Adobe Illustrator 16.0.0, SVG Export Plug-In . SVG Version: 6.00 Build 0)  -->
<!DOCTYPE svg PUBLIC "-//W3C//DTD SVG 1.1//EN" "http://www.w3.org/Graphics/SVG/1.1/DTD/svg11.dtd">
<svg version="1.1" id="Layer_1" xmlns="http://www.w3.org/2000/svg" xmlns:xlink="http://www.w3.org/1999/xlink" x="0px" y="0px"
	 width="3155.667px" height="2000px" viewBox="0 0 3155.667 2000" enable-background="new 0 0 3155.667 2000" xml:space="preserve">
<g>
	<path fill="#F7CC7F" d="M2472.867,1173.169l-2.982,667.02l411.351,1.84L2472.867,1173.169z M2677.359,1582.941l-169.639-0.759
		l1.268-283.595L2677.359,1582.941z M2507.621,1604.477l182.975,0.818l115.443,194.969l-299.287-1.338L2507.621,1604.477z"/>
	<g>
		<path fill="#213854" d="M901.887,592.136h1505.636c36.896,0,66.807,29.91,66.807,66.807v776.537v124.438
			c0,25.882-17.109,46.865-38.214,46.865h-646.197v184.908h382.848c28.594,0,51.775,23.182,51.775,51.775h-434.623h-126.954h-8.259
			H1527.75h-434.622c0-28.594,23.181-51.775,51.775-51.775h382.847v-184.908H873.294c-21.105,0-38.214-20.983-38.214-46.865
			v-124.438V658.943C835.08,622.045,864.99,592.136,901.887,592.136z"/>
		<path fill="#001333" d="M1109.231,1791.691h382.847V1573.04h126.954h8.261h126.953v218.651h382.847
			c28.595,0,51.775,23.182,51.775,51.775h-434.622h-126.953h-8.261h-126.954h-434.623
			C1057.456,1814.873,1080.637,1791.691,1109.231,1791.691z"/>
		<path fill="#001333" d="M799.408,1435.479V658.943c0-36.896,29.911-66.807,66.807-66.807h1505.636
			c36.896,0,66.806,29.911,66.806,66.806v776.538H799.408z"/>
		<path fill="#001333" d="M2438.656,1435.479v124.438c0,25.884-17.108,46.866-38.214,46.866H837.623
			c-21.106,0-38.215-20.982-38.215-46.866v-124.438H2438.656z"/>
		<path fill="#EAFCFC" d="M837.779,1401.758V661.015c0-19.417,16.308-35.158,36.425-35.158H2363.86
			c20.117,0,36.425,15.741,36.425,35.158v740.743H837.779z"/>
	</g>
	<g>
		<path fill="#B75742" d="M1897.949,987.276c0,0-23.495,10.245-36.406,92.077c0,0,19.498,13.061,19.894,4.761
			S1897.949,987.276,1897.949,987.276z"/>
		<circle fill="#F8C48B" cx="1984.037" cy="809.26" r="35.566"/>
		<path opacity="0.3" fill="#B75742" d="M2000.696,840.673c-8.814,4.669-19.527,5.634-29.553,1.734
			c-18.307-7.121-27.375-27.733-20.254-46.04c0.698-1.796,1.531-3.5,2.475-5.112c1.114,0.313,2.229,0.648,3.346,1.022
			C1980.542,800.258,1995.99,819.293,2000.696,840.673z"/>
		<path fill="#F8C48B" d="M1861.971,866.714c6.641,31.932,36.755,53.556,68.045,52.059c31.289-1.498,58.211-25.852,60.386-58.205
			c2.521-37.502-28.297-70.997-69.224-69.038C1880.251,793.488,1854.273,829.701,1861.971,866.714z"/>
		<path fill="#355389" d="M2045.327,1401.701c-0.436-9.815-1.205-18.221-2.485-24.674c-8.813-44.439-45.828-98.139-45.828-98.139
			l-132.197-16.664l4.978,28.141l-7.873,1.413c0,0-13.541,62.391-9.527,109.923H2045.327z"/>
		<path fill="#F38B80" d="M1743.957,1111.789c0,0,81.673,25.609,104.893,29.032c2.003-8.034,19.842-52.24,21.558-59.817
			c13.929,7.885,31.679-1.605,45.938,5.42c-7.176,25.311-23.291,108.672-29.731,112.426
			c-19.608,11.429-144.375-57.285-145.733-57.92C1746.066,1127.423,1743.957,1111.789,1743.957,1111.789z"/>
		<path fill="#B75742" d="M1859.962,1107.796c0,0-11.863,27.155-10.476,26.953c1.389-0.203,12.057,0.001,12.057,0.001v-22.574
			L1859.962,1107.796z"/>
		<path fill="#F47458" d="M1964.664,972.282c0,0,31.689,3.597,50.645,24.215s-30.639,186.357-34.085,212.599
			c-3.446,26.242,32.957,98.871,32.957,98.871s-123.745,24.598-155.913,3.354c0,0-2.826-202.826,0.621-221.571
			c3.446-18.745,32.167-94.975,39.061-102.473C1904.842,979.778,1964.664,972.282,1964.664,972.282z"/>
		<path fill="#F7A491" d="M1948.714,908.389c0,0,0.249,1.408,0.693,3.804c2.137,11.496,10.362,49.632,15.92,60.115
			c6.716,12.67-22.992,53.079-51.585,48.146c-8.512-1.468,7.194-37.128,6.439-40.905c-1.445-7.23-3.404-17.095-5.409-27.21
			c-1.132-5.705-2.276-11.491-3.353-16.927c-3.058-15.452-5.553-28.089-5.553-28.089L1948.714,908.389z"/>
		<path fill="#F47458" d="M1949.407,912.193c-0.444-2.396-0.693-3.804-0.693-3.804l-42.847-1.066c0,0,2.495,12.638,5.553,28.089
			c1.07,5.407,2.209,11.158,3.334,16.833c6.614-0.972,13.527-4.181,20.457-10.235c7.556-6.601,12.508-14.533,15.496-23.001
			C1950.18,916.306,1949.738,913.976,1949.407,912.193z"/>
		<path fill="#F7A491" d="M1922.941,806.554c0,0,17.473,2.423,30.132,18.763c12.659,16.34,26.304,66.871-5.144,94.344
			s-62.519-3.625-67.125-36.597C1876.197,850.093,1877.129,805.364,1922.941,806.554z"/>
		<path fill="#F7A491" d="M1871.637,874.924c1.982,7.949,7.19,13.319,11.632,11.994c4.44-1.325,6.433-8.843,4.449-16.792
			c-1.983-7.949-7.191-13.318-11.632-11.994C1871.645,859.458,1869.652,866.976,1871.637,874.924z"/>
		<path fill="#F8C48B" d="M1903.533,806.7c0,0,41.064,47.143,60.366,49.363c19.302,2.22,21.836,27.753,21.836,27.753
			s-6.901-58.835-26.01-70.181C1940.618,802.289,1903.533,806.7,1903.533,806.7z"/>
		<path fill="#F7A491" d="M1957.588,867.512c-1.57,8.533,1.587,16.359,7.051,17.479c5.465,1.12,11.166-4.89,12.736-13.423
			c1.569-8.533-1.588-16.359-7.052-17.479S1959.157,858.979,1957.588,867.512z"/>
		<g>
			<polygon fill="#BED9EA" points="1941.914,1114.639 1817.168,1137.393 1846.776,1299.726 1846.777,1299.726 1971.522,1276.973 
				1971.523,1276.972 1941.914,1114.639 			"/>
			<polygon fill="#D3E5F4" points="1950.069,1120.063 1824.596,1138.383 1848.436,1301.663 1848.436,1301.663 1973.909,1283.343 
				1973.909,1283.343 1950.069,1120.063 			"/>
			<polygon fill="#F4F4F4" points="1960.787,1126.179 1834.982,1142.068 1855.66,1305.779 1855.66,1305.779 1981.465,1289.89 
				1981.465,1289.889 1960.787,1126.179 			"/>
		</g>
		<path fill="#FFFFFF" d="M1900.164,900.26l29.804-1.866c0,0,0.022,11.363-13.062,12.563
			C1900.954,912.418,1900.164,900.26,1900.164,900.26z"/>
		<path fill="#F7A491" d="M2048.027,1147.154l-56.452,5.467c0,0,12.397,45.154,11.572,49.844c0,0-82.218,22.79-116.581,28.974
			c0,0-15.646-8.867-21.975-11.687c-6.329-2.82-23.346-5.896-27.107-6.389c-3.762-0.492-2.478,3.631,0.754,5.07
			c3.232,1.44,11.592,5.38,13.962,10.202c0,0-6.786,0.742-10.378-0.857c-3.591-1.601-8.537-4.988-8.615-6.744
			c-0.079-1.757-0.896-5.991-2.074-5.763c-0.301,0.059-0.701,1.45-1.104,2.903c-0.384,1.381-0.789,2.798-1.125,4.19
			c-0.604,2.502-1.298,6.158-1.567,7.8c-0.615,3.748,1.677,14.085,1.998,17.756c0.588,6.702,2.502,9.68,6.041,11.389
			c5.706,1.987,11.741,3.255,20.666,4.178c16.354,1.691,31.387-3.017,37.944-3.754c6.558-0.736,111.251-11.119,111.251-11.119
			s41.619-5.99,44.381-13.153C2052.378,1228.299,2048.027,1147.154,2048.027,1147.154z"/>
		<path fill="#F47458" d="M2009.5,990.506c0,0,15.175,7.195,28.515,38.273c12.677,29.534,13.349,176.414,13.349,176.414
			l-49.585-8.265l-23.214-68.331c-18.215-41.131-13.513-89.021,13.027-125.341C1998.672,993.568,2005.194,987.717,2009.5,990.506z"
			/>
		<path fill="#F48C7F" d="M1751.404,1115.041v29.347c-6.137-1.595-38.639-13.409-47.174-15.297l11.732-33.228l0,0
			c1.243-2.09,1.289-4.682,0.124-6.817c-0.821-1.508-1.678-2.896-2.172-3.428c-1.487-1.599-3.059-3.591-4.546-5.19
			c-1.488-1.6,1.419-7.323,3.508-9.01c2.088-1.688,6.756,7.089,8.938,9.356c6.587,6.845,19.85,27.617,22.142,31.015
			L1751.404,1115.041z"/>
		<polygon fill="#D3E5F4" points="1720.734,1165.405 1730.869,1163.827 1681.045,863.427 1678.64,863.802 1676.31,864.165 		"/>
		<g>
			<path fill="#F7A491" d="M1695.187,1120.268c-0.439-1.959-0.651-4.067-0.69-6.238c0.013-2.342,0.375-5.317,1.018-6.418
				c0.409-0.701,0.236-2.327,0.184-4.034c-0.017-0.549,0.028-1.101,0.149-1.636c0.003-0.013,0.006-0.024,0.009-0.037
				c0.354-1.553,1.016-3.006,1.849-4.364c0.79-1.289,1.326-2.771,1.819-5.11c0.384-1.817,1.156-3.559,2.373-4.963
				c1.198-1.382,2.352-1.897,3.292-1.196c4.344,3.241,22.75,11.658,20.498,20.474c-1.884,7.375-4.962,15.532-4.985,18.653
				c-0.033,4.278-5.656,6.376-9.49,6.521C1703.993,1132.193,1697.447,1130.353,1695.187,1120.268z"/>
		</g>
		<path fill="#D3E5F4" d="M1913.742,1020.455c-8.446-1.456,6.944-36.562,6.445-40.795l44.149-7.892l0.99,0.54
			C1972.043,984.979,1942.335,1025.388,1913.742,1020.455z"/>
		<path fill="#F4F4F4" d="M1965.327,972.309c-0.397-1.527-4.844-17.238-4.844-17.238l-31.766,19.412l-12.425-9.368l6.077,29.359
			l5.917-8.726l7.79,9.834L1965.327,972.309z"/>
		<path fill="#D3E5F4" d="M2051.363,1207.183l-51.229-8.538c0,0-4.359-12.755-3.651-12.992l55.827,5.188L2051.363,1207.183z"/>
	</g>
	<g>
		<path fill="#F7CC7F" d="M2070.343,356.702h434.298c15.002,0,27.163,12.203,27.163,27.255v309.704
			c0,15.052-12.161,27.255-27.163,27.255h-341.922c-13.838,19.375-38.928,54.073-41.143,54.073c-2.073,0,1.919-32.772,4.732-54.073
			h-55.966c-15.002,0-27.163-12.203-27.163-27.255V383.957C2043.18,368.905,2055.341,356.702,2070.343,356.702z"/>
		<g>
			<g>
				<polygon fill="#162E55" points="2195.963,591.245 2190.335,589.111 2237.009,465.996 2375.707,510.177 2443.074,411.121 
					2448.051,414.505 2378.159,517.275 2240.616,473.462 				"/>
			</g>
			<circle fill="#F47458" cx="2179.131" cy="609.306" r="53.348"/>
			<circle fill="#F47458" cx="2378.327" cy="518.255" r="34.498"/>
			<circle fill="#F47458" cx="2445.563" cy="412.813" r="11.872"/>
			<circle fill="#F47458" cx="2238.813" cy="469.729" r="28.535"/>
		</g>
		<rect x="2268.914" y="585.269" opacity="0.8" fill="#FFFFFF" width="225.096" height="10.834"/>
		<rect x="2268.914" y="615.832" opacity="0.8" fill="#FFFFFF" width="163" height="10.834"/>
		<rect x="2075.512" y="395.922" opacity="0.8" fill="#FFFFFF" width="163.001" height="10.834"/>
		<rect x="2075.512" y="426.319" opacity="0.8" fill="#FFFFFF" width="118.693" height="10.834"/>
		<rect x="2268.914" y="646.395" opacity="0.8" fill="#FFFFFF" width="225.096" height="10.834"/>
	</g>
	<g>
		<path fill="#50BFA5" d="M1840.587,521.908h-330.58c-11.419,0-20.676,9.289-20.676,20.746v235.741
			c0,11.458,9.257,20.746,20.676,20.746h260.265c10.533,14.749,29.632,41.16,31.317,41.16c1.578,0-1.46-24.946-3.602-41.16h42.6
			c11.419,0,20.676-9.289,20.676-20.746V542.654C1861.263,531.196,1852.006,521.908,1840.587,521.908z"/>
		<path opacity="0.8" fill="#FFFFFF" d="M1762.417,629.939c-4.701-1.809-9.746-3.436-15.075-4.874
			c1.416-5.325,2.543-10.508,3.326-15.476c3.642-23.095-0.235-39.21-10.917-45.377c-10.682-6.166-26.575-1.467-44.756,13.234
			c-3.914,3.165-7.842,6.717-11.749,10.609c-3.907-3.892-7.836-7.444-11.75-10.609c-18.18-14.7-34.074-19.401-44.756-13.234
			s-14.559,22.282-10.916,45.377c0.783,4.968,1.91,10.151,3.326,15.476c-5.329,1.438-10.374,3.065-15.076,4.874
			c-21.821,8.394-33.839,19.81-33.839,32.143s12.018,23.749,33.839,32.143c4.702,1.809,9.747,3.436,15.076,4.875
			c-1.416,5.325-2.543,10.508-3.326,15.476c-3.643,23.095,0.234,39.21,10.916,45.377c3.066,1.77,6.561,2.645,10.417,2.645
			c9.577,0,21.378-5.398,34.339-15.879c3.914-3.165,7.843-6.717,11.75-10.609c3.907,3.892,7.835,7.444,11.749,10.609
			c12.963,10.482,24.762,15.879,34.34,15.879c3.854,0,7.351-0.875,10.416-2.645c10.682-6.167,14.559-22.282,10.917-45.377
			c-0.783-4.968-1.91-10.151-3.326-15.476c5.329-1.439,10.374-3.066,15.075-4.875c21.821-8.394,33.84-19.809,33.84-32.143
			S1784.238,638.333,1762.417,629.939z M1697.666,580.749c12.092-9.778,23.153-14.903,31.711-14.903
			c3.103,0,5.877,0.674,8.251,2.045c8.921,5.15,12.145,20.108,8.845,41.037c-0.763,4.838-1.861,9.887-3.241,15.079
			c-10.695-2.625-22.425-4.515-34.767-5.605c-7.118-10.146-14.623-19.363-22.246-27.315
			C1690.027,587.292,1693.854,583.831,1697.666,580.749z M1718.346,682.347c-3.891,6.74-7.987,13.213-12.227,19.353
			c-7.437,0.601-15.091,0.913-22.873,0.913s-15.437-0.312-22.873-0.913c-4.239-6.14-8.336-12.613-12.227-19.353
			c-3.892-6.74-7.442-13.524-10.641-20.265c3.198-6.741,6.749-13.525,10.641-20.265c3.891-6.74,7.987-13.213,12.227-19.353
			c7.437-0.601,15.091-0.912,22.873-0.912s15.437,0.311,22.873,0.912c4.239,6.14,8.336,12.613,12.227,19.353
			c3.892,6.74,7.442,13.523,10.64,20.265C1725.788,668.823,1722.237,675.607,1718.346,682.347z M1731.289,667.073
			c4.45,9.907,8.084,19.663,10.803,28.994c-9.433,2.309-19.698,4.034-30.493,5.133c3.601-5.358,7.089-10.949,10.426-16.729
			C1725.362,678.689,1728.447,672.872,1731.289,667.073z M1702.947,706.195c-6.353,8.803-12.982,16.834-19.701,23.851
			c-6.719-7.017-13.349-15.048-19.701-23.851c6.441,0.439,13.027,0.665,19.701,0.665S1696.506,706.634,1702.947,706.195z
			 M1654.894,701.2c-10.794-1.099-21.061-2.824-30.493-5.132c2.719-9.331,6.354-19.087,10.803-28.994
			c2.842,5.799,5.927,11.616,9.265,17.397C1647.805,690.251,1651.293,695.841,1654.894,701.2z M1635.203,657.091
			c-4.45-9.907-8.084-19.663-10.803-28.994c9.433-2.309,19.699-4.034,30.493-5.133c-3.601,5.358-7.089,10.949-10.426,16.729
			C1641.13,645.476,1638.045,651.292,1635.203,657.091z M1663.545,617.97c6.353-8.803,12.982-16.834,19.701-23.851
			c6.719,7.017,13.35,15.048,19.701,23.851c-6.441-0.439-13.027-0.665-19.701-0.665S1669.986,617.531,1663.545,617.97z
			 M1722.024,639.694c-3.337-5.78-6.825-11.371-10.426-16.729c10.795,1.099,21.061,2.824,30.493,5.133
			c-2.719,9.331-6.353,19.087-10.803,28.994C1728.447,651.292,1725.362,645.476,1722.024,639.694z M1620.02,608.928
			c-3.301-20.929-0.076-35.887,8.845-41.037c2.374-1.371,5.147-2.045,8.251-2.045c8.557,0,19.62,5.126,31.711,14.903
			c3.811,3.082,7.639,6.543,11.447,10.337c-7.623,7.952-15.129,17.169-22.247,27.315c-12.341,1.091-24.071,2.981-34.765,5.605
			C1621.881,618.815,1620.782,613.766,1620.02,608.928z M1605.6,690.261c-19.775-7.606-31.117-17.877-31.117-28.178
			s11.342-20.572,31.117-28.179c4.578-1.761,9.493-3.346,14.688-4.749c3.075,10.581,7.302,21.686,12.531,32.927
			c-5.229,11.241-9.456,22.347-12.531,32.927C1615.093,693.607,1610.178,692.021,1605.6,690.261z M1668.826,743.416
			c-16.475,13.322-31.041,18.01-39.962,12.858c-8.921-5.15-12.146-20.108-8.845-41.037c0.763-4.838,1.861-9.888,3.242-15.079
			c10.693,2.624,22.424,4.514,34.766,5.605c7.117,10.147,14.623,19.364,22.246,27.315
			C1676.465,736.873,1672.637,740.333,1668.826,743.416z M1746.473,715.237c3.3,20.929,0.076,35.886-8.845,41.037
			c-8.92,5.152-23.486,0.464-39.962-12.858c-3.812-3.082-7.639-6.542-11.447-10.337c7.623-7.952,15.128-17.168,22.246-27.315
			c12.342-1.091,24.071-2.981,34.767-5.605C1744.611,705.35,1745.71,710.399,1746.473,715.237z M1760.893,690.261
			c-4.578,1.761-9.493,3.346-14.688,4.749c-3.075-10.581-7.302-21.686-12.531-32.927c5.229-11.241,9.456-22.346,12.531-32.927
			c5.195,1.402,10.11,2.988,14.688,4.749c19.775,7.606,31.116,17.877,31.116,28.179S1780.668,682.654,1760.893,690.261z"/>
		<circle fill="#355389" cx="1683.246" cy="662.082" r="20.063"/>
		<circle fill="#F47458" cx="1602.501" cy="634.099" r="10.972"/>
		<rect x="1509.832" y="542.512" opacity="0.8" fill="#FFFFFF" width="136.154" height="7.026"/>
		<rect x="1509.832" y="562.333" opacity="0.8" fill="#FFFFFF" width="91.322" height="7.026"/>
		<rect x="1509.832" y="582.153" opacity="0.8" fill="#FFFFFF" width="55.98" height="7.026"/>
		<rect x="1514.745" y="741.804" opacity="0.8" fill="#FFFFFF" width="91.323" height="7.026"/>
		<rect x="1514.745" y="761.624" opacity="0.8" fill="#FFFFFF" width="55.981" height="7.026"/>
	</g>
	<g>
		<g>
			<path fill="#F7CC7F" d="M1442.113,236.434c-68.002,33.711-63.908,138.343,6.541,164.518c12.654,4.701,23.06,14.364,29.6,26.708
				l22.507,42.479c6.202,11.706,19.947,16.284,31.578,10.518l25.761-12.771c11.631-5.766,17.245-19.941,12.899-32.568
				c-15.858-46.072-24.88-61.8-15.704-87.233C1582.137,273.689,1510.13,202.716,1442.113,236.434z"/>
			<g>
				<path fill="#FAE0B2" d="M1542.587,410.52l-8.856,3.944c-0.542-1.446-16.52-41.992-32.875-91.011
					c-9.162,8.115-19.345,14.659-30.354,19.503c17.162,37.982,37.469,90.928,37.534,91.09l-8.866,3.916
					c-0.066-0.164-20.471-53.439-37.724-91.511c-17.843,5.614-25.74-1.868-28.367-5.476c-4.402-6.048-4.619-14.646-0.513-20.446
					c6.399-9.039,22.243-7.465,33.514,13.299c11.508-4.987,22.027-11.977,31.32-20.812c-2.761-8.28-5.699-16.073-4.61-23.827
					c1.212-8.634,7.539-14.777,14.389-15.004c10.698-0.356,21.604,14.953,8.729,33.14c-2.233,3.155-4.885,6.101-7.337,8.667
					C1525.909,368.361,1541.465,407.518,1542.587,410.52z M1504.974,305.114c11.554-13.296,6.324-20.22,3.142-20.759
					C1500.594,289.35,1501.207,293.728,1504.974,305.114z M1439.553,332.019c1.529,7.383,10.385,7.165,17.294,5.223
					C1448.311,322.616,1437.591,322.551,1439.553,332.019z"/>
			</g>
			<path fill="#96D9C9" d="M1477.649,426.626c0.194,0.35,0.417,0.68,0.605,1.034l22.507,42.479
				c6.202,11.706,19.947,16.284,31.578,10.518l25.761-12.771c11.631-5.766,17.245-19.941,12.899-32.568
				c-7.054-20.495-12.75-34.979-16.098-46.989L1477.649,426.626z"/>
		</g>
		<g>
			<path fill="#FAE0B2" d="M1601.631,211.767c-7.032,6.366-14.064,12.732-21.097,19.098c-5.504,4.982-12.748,14.06-20.743,14.022
				c-1.981-0.009-4.189-1.835-3.963-3.98c0.869-8.239,10.004-14.067,15.778-19.236c7.069-6.329,14.137-12.657,21.207-18.985
				C1598.854,197.276,1607.697,206.274,1601.631,211.767L1601.631,211.767z"/>
		</g>
		<g>
			<path fill="#FAE0B2" d="M1522.612,156.29c-12.704,50.574-11.815,49.348-15.338,53.2c-2.748,3.004-8.027,1.266-8.947-2.505
				c-1.167-4.782-0.954-3.456,12.264-53.921C1512.624,145.3,1524.562,148.528,1522.612,156.29L1522.612,156.29z"/>
		</g>
		<g>
			<path fill="#FAE0B2" d="M1416.252,213.927c-5.349-7.947-10.698-15.894-16.047-23.841c-4.757-7.067-11.817-14.612-12.814-23.297
				c-0.438-3.816,4.351-5.695,7.22-4.122c7.483,4.103,12.014,14.348,16.611,21.245c5.311,7.968,10.622,15.937,15.933,23.905
				C1431.621,214.517,1420.721,220.567,1416.252,213.927L1416.252,213.927z"/>
		</g>
		<g>
			<path fill="#FAE0B2" d="M1364.586,343.987c-13.429,5.371-27.016,10.96-40.954,14.883c-7.501,2.112-10.097-8.98-2.997-11.531
				c13.682-4.915,27.438-9.461,40.98-14.781C1368.701,329.775,1371.544,341.205,1364.586,343.987L1364.586,343.987z"/>
		</g>
		<g>
			<path fill="#FAE0B2" d="M1366.045,277.153c-8.674-1.026-17.303-2.321-25.928-3.697c-7.872-1.256-18.107-1.239-24.458-6.296
				c-3.37-2.683-0.911-7.843,2.493-8.903c4.268-1.328,5.529-0.293,24.2,2.784c8.427,1.389,16.878,2.612,25.291,4.087
				C1374.398,266.312,1372.936,277.967,1366.045,277.153L1366.045,277.153z"/>
		</g>
	</g>
	<g>
		<path fill="#F7CC7F" d="M1390.115,1053.588l55.021-131.408l-88.594-117.755l-142.482,16.566l-56.043,131.717l-140.785,16.368
			l-57.71,135.636l87.071,115.731l141.369-17.262l85.318,113.4l146.316-17.865l55.399-132.312L1390.115,1053.588z M1217.636,825.772
			l136.561-15.877l85.033,113.022l-52.711,125.89l-0.119-0.158l-141.939,16.503l-82.193-109.248L1217.636,825.772z M965.438,1103.99
			l55.37-130.132l136.561-15.878l84.428,112.22l-54.397,127.849l-138.474,16.908L965.438,1103.99z M1415.991,1293.955
			l-140.378,17.142l-82.326-109.424l54.361-129.831l137.141-16.746l84.299,112.047L1415.991,1293.955z"/>
		<circle fill="#F47458" cx="1356.31" cy="809.896" r="17.268"/>
		<circle fill="#F47458" cx="1019.92" cy="973.586" r="17.268"/>
		<circle fill="#F47458" cx="1439.23" cy="924.141" r="17.268"/>
		<circle fill="#F47458" cx="1469.088" cy="1165.886" r="17.268"/>
		<circle fill="#F47458" cx="1274.675" cy="1311.097" r="17.268"/>
		<circle fill="#F47458" cx="1244.429" cy="1067.772" r="17.268"/>
		<circle fill="#50BFA5" cx="1402.416" cy="868.805" r="10.606"/>
		<circle fill="#50BFA5" cx="1159.986" cy="956.318" r="10.606"/>
		<circle fill="#50BFA5" cx="1386.368" cy="1053.868" r="9.993"/>
		<circle fill="#50BFA5" cx="959.521" cy="1104.299" r="14.55"/>
		<g>
			<path fill="#50BFA5" d="M1342.032,765.641v-65.172h7.085v27.855h32.74v-27.855h7.129v65.172h-7.129v-31.024h-32.74v31.024
				H1342.032z"/>
		</g>
		<g>
			<path fill="#50BFA5" d="M1503.411,1199.358v-65.173h7.085v27.855h32.74v-27.855h7.129v65.173h-7.129v-31.024h-32.74v31.024
				H1503.411z"/>
		</g>
		<g>
			<path fill="#50BFA5" d="M1398.818,790.232v-4.549c1.068-2.4,2.47-4.717,4.204-6.954c1.734-2.236,3.889-4.478,6.463-6.725
				c1.156-1.025,3.005-2.459,5.546-4.303c2.542-1.843,4.314-3.289,5.318-4.336c1.549-1.636,2.684-3.179,3.403-4.63
				c0.72-1.451,1.08-2.929,1.08-4.434c0-2.792-0.823-4.996-2.47-6.61c-1.647-1.614-3.911-2.421-6.791-2.421
				c-2.945,0-5.405,0.895-7.378,2.683c-1.975,1.789-3.311,4.352-4.009,7.69l-4.679-0.981c0.96-4.472,2.814-7.859,5.563-10.161
				c2.749-2.301,6.293-3.453,10.635-3.453c4.406,0,7.891,1.173,10.455,3.518c2.563,2.345,3.845,5.525,3.845,9.539
				c0,1.702-0.208,3.245-0.622,4.63c-0.415,1.385-1.059,2.678-1.931,3.877c-1.681,2.378-5.126,5.498-10.34,9.359
				c-1.157,0.83-2.019,1.462-2.586,1.898c-2.748,2.073-5.018,4.096-6.806,6.07c-1.789,1.975-3.098,3.911-3.927,5.809h26.211v4.483
				H1398.818z"/>
		</g>
	</g>
	<path fill="#F47458" d="M1853.865,280.661l-37.29-14.984l-107.286,127.143c-9.271,10.986-5.254,27.868,7.887,33.148l0,0
		c8.276,3.326,17.772,0.864,23.553-6.106l24.987-30.128l39.127,15.723l-2.241,39.45c-0.512,8.994,4.671,17.265,12.888,20.567
		l0.709,0.285c13.151,5.285,27.646-4.182,28.442-18.579L1853.865,280.661z M1790.277,358.698l19.688-23.387l-1.724,30.605
		L1790.277,358.698z"/>
	<g>
		<rect x="1162.034" y="1704.254" fill="#F4F4F4" width="390.021" height="136.6"/>
		<rect x="1162.034" y="1729.263" fill="#D3E5F4" width="390.021" height="2.3"/>
		<rect x="1162.034" y="1751.799" fill="#D3E5F4" width="390.021" height="2.3"/>
		<rect x="1162.034" y="1774.336" fill="#D3E5F4" width="390.021" height="2.3"/>
		<rect x="1162.034" y="1796.872" fill="#D3E5F4" width="390.021" height="2.3"/>
		<path fill="#D3E5F4" d="M1359.804,1754.099c0,0-183.512,15.753-206.509,35.529c0,0,1.15-23.456,8.739-37.829l57.491,2.185
			L1359.804,1754.099z"/>
		<polygon fill="#F47458" points="1457.971,1754.075 1437.948,1785.795 1415.542,1754.075 		"/>
		<polygon fill="#466EB6" points="1364.594,1776.636 1344.572,1808.355 1322.166,1776.636 		"/>
		<rect x="1162.034" y="1819.294" fill="#D3E5F4" width="390.021" height="2.3"/>
		<polygon fill="#50BFA5" points="1260.93,1799.24 1240.907,1830.959 1218.501,1799.24 		"/>
		<polygon fill="#D3E5F4" points="1459.221,1704.254 1459.221,1772.018 1459.221,1773.09 1459.221,1840.853 1552.055,1840.853 
			1552.055,1773.09 1552.055,1772.018 1552.055,1704.254 		"/>
	</g>
	<g>
		<path fill="#F7CC7F" d="M528.236,1392.649c-0.698,21.869,17.174,39.742,39.044,39.044c19.805-0.633,35.936-16.763,36.568-36.568
			c0.698-21.869-17.174-39.742-39.044-39.044C544.999,1356.714,528.868,1372.844,528.236,1392.649z"/>
		<g>
			<path fill="#B75742" d="M461.993,1829.017h7.563c1.761,0,3.188-1.427,3.188-3.188v-38.365c0-1.761-1.427-3.188-3.188-3.188
				h-7.563c-1.761,0-3.188,1.428-3.188,3.188v38.365C458.805,1827.59,460.232,1829.017,461.993,1829.017z"/>
			<g>
				<path fill="#50BFA5" d="M392.563,1305.875c11.653-15.265,24.723-23.697,38.847-25.063c21.785-2.108,39.143,13.055,39.315,13.208
					l8.683-9.783c-0.88-0.781-21.858-19.092-49.258-16.444c-17.89,1.73-34.034,11.873-47.984,30.146L392.563,1305.875z"/>
			</g>
			<path fill="#B75742" d="M494.541,1274.914l53.619,53.619c4.39,4.39,4.39,11.508,0,15.897l-18.858,18.856
				c-4.39,4.39-11.508,4.39-15.898-0.001l-53.617-53.616c-4.39-4.391-4.39-11.509,0-15.898l18.857-18.857
				C483.033,1270.524,490.151,1270.524,494.541,1274.914z"/>
			<path fill="#F47458" d="M624.777,1325.459l-127.163,127.163c-35.115-35.115-35.115-92.048,0-127.163
				C532.729,1290.344,589.662,1290.344,624.777,1325.459z"/>
			<g>
				<path fill="#B75742" d="M240.804,1548.138l127.52-259.765l39.802,19.539l-127.52,259.765L240.804,1548.138z M374.562,1306.641
					L259.071,1541.9l15.296,7.509l115.491-235.26L374.562,1306.641z"/>
			</g>
			<g>
				<path fill="#B75742" d="M231.989,1564.646l41.959-14.328l93.511,273.852l-41.96,14.328L231.989,1564.646z M265.442,1567.645
					l-16.126,5.507l84.689,248.019l16.126-5.507L265.442,1567.645z"/>
			</g>
			<path fill="#96D9C9" d="M494.036,1465.394l0.5,0.5c2.54,2.538,6.655,2.538,9.194-0.001l134.318-134.317
				c2.539-2.539,2.539-6.654,0.001-9.194l-0.5-0.5c-2.539-2.539-6.655-2.539-9.193,0L494.036,1456.2
				C491.497,1458.739,491.497,1462.854,494.036,1465.394z"/>
			<path fill="#F47458" d="M226.167,1560.81c-0.972,19.184,14.785,34.941,33.968,33.969c16.425-0.832,29.771-14.178,30.604-30.603
				c0.972-19.184-14.785-34.941-33.968-33.969C240.346,1531.039,227,1544.385,226.167,1560.81z"/>
			<path fill="#50BFA5" d="M518.832,1797.771H306.738c-24.459,0-44.288,19.828-44.288,44.287l0,0h300.669l0,0
				C563.119,1817.6,543.291,1797.771,518.832,1797.771z"/>
		</g>
	</g>
	<g>
		<g>
			<path fill="#466EB6" d="M2079.188,1710.668h-21.667c3.545-2.681,7.979-4.285,12.804-4.285h542.789
				c28.398,0,51.42,22.569,51.42,50.409v32.019c0,27.84-23.021,50.409-51.42,50.409l-536.718-0.179L2079.188,1710.668z"/>
			<path fill="#7792B2" d="M2387.342,1706.502c27.157,0,49.174,21.583,49.174,48.207v36.185c0,26.624-22.017,48.207-49.174,48.207
				h-337.9v-8.094h1.396l85.901-7.976l17.362-66.775c0,0-33.511-36.898-35.695-37.851c-2.186-0.953-67.568-3.839-67.568-3.839
				l-1.396-0.016v-8.049H2387.342z"/>
			<path fill="#F4F4F4" d="M2071.357,1772.563c0-39.041-20.58-57.967-20.58-57.967h329.645c24.944,0,45.166,19.824,45.166,44.279
				v27.853c0,24.454-20.222,44.279-45.166,44.279h-329.645C2050.777,1831.007,2071.357,1821.723,2071.357,1772.563z"/>
			<path fill="#DAEEF7" d="M2425.588,1758.875v27.853c0,3.661-0.463,7.216-1.316,10.619c-11.118-26.667-32.428-52.353-72.99-60.611
				c-94.705-19.283-300.504-22.14-300.504-22.14h329.645C2405.366,1714.596,2425.588,1734.42,2425.588,1758.875z"/>
		</g>
		<path fill="#50BFA5" d="M2687.337,1604.499h21.675c-3.546-2.128-7.982-3.4-12.808-3.4h-543.002
			c-28.409,0-51.439,17.908-51.439,39.998v25.406c0,22.091,23.03,39.999,51.439,39.999l536.929-0.142L2687.337,1604.499z"/>
		<path fill="#3C8F7C" d="M2379.063,1601.193c-27.168,0-49.192,17.125-49.192,38.251v28.712c0,21.126,22.024,38.251,49.192,38.251
			h338.033v-6.423h-1.396l-85.936-6.327l-17.369-52.985c0,0,33.523-29.278,35.71-30.034c2.187-0.755,67.595-3.046,67.595-3.046
			l1.396-0.012v-6.387H2379.063z"/>
		<path fill="#F4F4F4" d="M2695.172,1653.611c0-30.979,20.588-45.996,20.588-45.996h-329.773c-24.955,0-45.184,15.73-45.184,35.135
			v22.101c0,19.404,20.229,35.134,45.184,35.134h329.773C2715.76,1699.984,2695.172,1692.618,2695.172,1653.611z"/>
		<path fill="#DAEEF7" d="M2340.803,1642.75v22.101c0,2.905,0.462,5.726,1.316,8.427c11.123-21.16,32.439-41.541,73.019-48.095
			c94.741-15.3,300.622-17.567,300.622-17.567h-329.773C2361.031,1607.615,2340.803,1623.346,2340.803,1642.75z"/>
		<g>
			<polygon fill="#F47458" points="2646.889,1653.088 2626.01,1686.165 2602.645,1653.088 			"/>
			<path fill="#DAEEF7" d="M2341.1,1653.088h354.099c0,0,0-2.283,0-2.648c0-0.364-354.396,0-354.396,0L2341.1,1653.088z"/>
		</g>
		<g>
			<polygon fill="#50BFA5" points="2119.842,1775.611 2140.722,1808.688 2164.086,1775.611 			"/>
			<path fill="#DAEEF7" d="M2425.632,1775.611h-354.099c0,0,0-2.283,0-2.648c0-0.364,354.396,0,354.396,0L2425.632,1775.611z"/>
		</g>
		<g>
			<g>
				<path fill="#F47458" d="M2165.465,1499.635h-17.117c2.801-2.118,6.304-3.386,10.115-3.386h428.814
					c22.436,0,40.623,17.83,40.623,39.824v25.296c0,21.994-18.188,39.824-40.623,39.824l-424.019-0.142L2165.465,1499.635z"/>
				<path fill="#B75742" d="M2408.912,1496.343c21.455,0,38.848,17.052,38.848,38.085v28.587c0,21.033-17.393,38.085-38.848,38.085
					h-266.947v-6.396h1.103l67.864-6.3l13.717-52.754c0,0-26.475-29.151-28.201-29.903c-1.727-0.753-53.38-3.033-53.38-3.033
					l-1.103-0.012v-6.359H2408.912z"/>
				<path fill="#F4F4F4" d="M2159.277,1548.533c0-30.844-16.258-45.796-16.258-45.796h260.426c19.707,0,35.682,15.662,35.682,34.981
					v22.005c0,19.319-15.975,34.98-35.682,34.98H2143.02C2143.02,1594.704,2159.277,1587.37,2159.277,1548.533z"/>
				<path fill="#DAEEF7" d="M2439.127,1537.719v22.005c0,2.893-0.364,5.701-1.04,8.39c-8.783-21.068-25.617-41.36-57.663-47.885
					c-74.818-15.234-237.404-17.491-237.404-17.491h260.426C2423.152,1502.737,2439.127,1518.399,2439.127,1537.719z"/>
			</g>
			<g>
				<polygon fill="#13375B" points="2343.244,1546.361 2361.655,1579.072 2378.197,1546.361 				"/>
				<path fill="#DAEEF7" d="M2439.127,1546.361h-279.976c0,0,0-2.283,0-2.648c0-0.364,279.976,0,279.976,0V1546.361z"/>
			</g>
		</g>
	</g>
	<g>
		<path fill="#0E2E35" d="M2552.829,960.415c4.617-3.274,8.996-6.72,13.138-10.302l59.416,83.781
			c3.652,5.149,0.522,13.642-6.99,18.969c-7.513,5.328-16.563,5.472-20.213,0.323l-59.417-83.781
			C2543.512,966.682,2548.213,963.689,2552.829,960.415z"/>
		
			<ellipse transform="matrix(-0.8157 0.5784 -0.5784 -0.8157 4903.877 51.0588)" opacity="0.6" fill="#C5DDF9" cx="2443.805" cy="806.663" rx="185.344" ry="186.496"/>
		<path fill="#FFFFFF" d="M2552.246,956.899c-35.811,26.419-80.634,39.768-126.455,35.645l-161.109-237.102
			c0.107-0.372,0.204-0.744,0.314-1.116c13.295-45.001,41.964-81.235,78.518-104.613L2552.246,956.899z"/>
		<path fill="#FFFFFF" d="M2475.636,623.278l148.99,219.266c-1.114,5.608-2.479,11.217-4.132,16.809
			c-7.524,25.47-19.982,48.124-35.998,67.237l-201.213-296.12C2412.281,620.477,2443.943,617.604,2475.636,623.278z"/>
		<path fill="#184655" d="M2272.883,927.869c67.355,94.984,198.483,117.718,292.881,50.778
			c94.396-66.939,116.318-198.205,48.963-293.189c-67.355-94.983-198.482-117.717-292.88-50.777
			C2227.449,701.62,2205.527,832.885,2272.883,927.869z M2292.616,913.875c-59.579-84.018-40.188-200.128,43.312-259.34
			c83.498-59.211,199.486-39.102,259.066,44.916c59.579,84.018,40.188,200.128-43.311,259.34
			C2468.184,1018.003,2352.195,997.894,2292.616,913.875z"/>
		<path opacity="0.5" fill="#50BFA5" d="M2283.256,920.513c63.268,89.22,186.438,110.575,275.106,47.697
			s109.261-186.177,45.992-275.397c-63.269-89.219-186.438-110.574-275.106-47.696
			C2240.579,707.995,2219.987,831.294,2283.256,920.513z M2292.616,913.875c-59.579-84.018-40.188-200.128,43.312-259.34
			c83.498-59.211,199.486-39.102,259.066,44.916c59.579,84.018,40.188,200.128-43.311,259.34
			C2468.184,1018.003,2352.195,997.894,2292.616,913.875z"/>
		<path fill="#184655" d="M2804.033,1326.35l13.36-9.604c13.351-9.598,16.395-28.201,6.797-41.553l-171.806-240.417
			c-9.598-13.352-28.201-16.395-41.553-6.797l-13.359,9.604c-13.352,9.598-16.395,28.201-6.797,41.553l171.805,240.417
			C2772.078,1332.904,2790.682,1335.947,2804.033,1326.35z"/>
	</g>
	<g>
		<g>
			<path fill="#F8C48B" d="M821.56,1275.734c0,0-54.998-10.144-79.729,48.026c-24.729,58.169-7.446,50.157-19.359,79.167
				c-11.912,29.009-55.392,30.684-48.577,71.471s26.896,43.953,26.896,43.953s-11.909,34.599,12.563,64.05
				c24.474,29.452,76.599,49.625,115.531,38.462c0,0,65.081,22.744,122.281-2.69c57.2-25.436,36.367-21.954,60.823-26.04
				c24.456-4.087,84.974-48.67,65.927-95.799c0,0,32.288-54.625-13.342-87.212c-45.63-32.589-59.661-71.089-91.089-119.875
				C942.058,1240.461,846.613,1258.505,821.56,1275.734z"/>
		</g>
		<path fill="#D3D9F4" d="M799.314,1590.998c0,0-37.873-5.382-96.806,51.409c-58.934,56.79-138.408,126.123-104.028,181.465
			l144.746-3.474c0,0,87.512-102.985,88.76-108.343S799.314,1590.998,799.314,1590.998z"/>
		<path fill="#D3D9F4" d="M968.226,1590.925c0,0,50.94-5.309,109.874,51.482c58.934,56.79,138.408,126.123,104.028,181.465
			l-144.746-3.474c0,0-87.512-102.985-88.76-108.343S968.226,1590.925,968.226,1590.925z"/>
		<path fill="#355389" d="M1060.3,1846.655l-13.506-110.166c-16.043-133.616-58.947-147.391-70.84-148.608
			c-1.032-0.024-2.04-0.044-3.103-0.072c-0.001,0-0.02,0.002-0.02,0.002l0.002-0.002c-23.35-0.624-53.875-2.304-83.567-4.211v-0.33
			c-0.857,0.057-1.723,0.109-2.581,0.165c-0.859-0.056-1.725-0.108-2.582-0.165v0.33c-29.693,1.907-60.217,3.587-83.567,4.211
			l0.002,0.002c0,0-0.018-0.002-0.02-0.002c-1.063,0.028-2.07,0.048-3.103,0.072c-11.894,1.218-54.797,14.992-70.84,148.608
			l-13.506,111.844L1060.3,1846.655z"/>
		<path fill="#C2CCF2" d="M1185.842,1823.872c0,0,17.04-13.236,4.611-46.714s-101.464-55.953-120.932-9.617L1185.842,1823.872z"/>
		<path fill="#C2CCF2" d="M594.766,1823.872c0,0-17.04-13.236-4.611-46.714s101.464-55.953,120.932-9.617L594.766,1823.872z"/>
		<g>
			<g>
				<path fill="#ED9485" d="M960.342,1827.11c1.859-2.864-2.802-7.722-6.298-11.365c-3.874-4.038-27.328-14.175-31.317-15.394
					c-3.988-1.219-38.17,3.6-51.255,7.887c-13.085,4.287-21.705,2.525-21.705,2.525c-3.432-0.701-8.589-1.641-12.594-2.47
					l-8.203,30.926c30.717-0.389,62.835,1.49,65.747,1.417c9.23-0.232,26.138-9.894,30.06-11.312s11.866-0.299,17.207,2.205
					c5.34,2.505,20.889,8.453,23.492,7.068C968.08,1837.214,960.342,1827.11,960.342,1827.11z"/>
			</g>
			<path fill="#ED9485" d="M851.565,1810.992c0,0-172.644-62.964-211.455-51.32c-38.811,11.643-54.323,48.195-42.68,71.482
				c11.643,23.286,240.54,7.616,240.54,7.616L851.565,1810.992z"/>
		</g>
		<path fill="#F7A491" d="M923.937,1535.979c-0.119,1.131,5.011,42.306,7.742,64.075c1.019,8.121-3.844,15.804-11.604,18.408
			c-20.74,6.96-60.988,15.485-85.322-11.714c-2.217-2.478-3.198-5.83-2.737-9.123l13.366-95.581L923.937,1535.979z"/>
		<path fill="#F47458" d="M920.075,1556.763c2.212-0.743,4.153-1.934,5.825-3.394c-1.18-9.756-2.011-16.93-1.963-17.391
			l-78.555-33.935l-6.575,47.017C863.355,1571.292,900.443,1563.35,920.075,1556.763z"/>
		<g>
			
				<ellipse transform="matrix(0.9516 -0.3074 0.3074 0.9516 -405.6489 307.5076)" fill="#F7A491" cx="773.21" cy="1441.29" rx="20.601" ry="30.479"/>
			
				<ellipse transform="matrix(-0.9862 -0.1658 0.1658 -0.9862 1727.5861 2995.2949)" fill="#F7A491" cx="988.823" cy="1425.534" rx="20.602" ry="30.48"/>
			
				<ellipse transform="matrix(0.9973 -0.0729 0.0729 0.9973 -101.2966 68.067)" fill="#F7A491" cx="882.119" cy="1422.169" rx="102.291" ry="130.188"/>
		</g>
		<path fill="#F4F4F4" d="M833.555,1586.384c0,0,16.427,30.132,50.606,39.06c0,0-26.006,9.73-40.866,3.302
			C828.434,1622.315,817.128,1609.921,833.555,1586.384z"/>
		<path fill="#F4F4F4" d="M929.995,1586.384c0,0-16.242,30.132-50.036,39.06c0,0,25.713,9.73,40.406,3.302
			C935.058,1622.315,946.236,1609.921,929.995,1586.384z"/>
		<path fill="#F7A491" d="M929.042,1810.992c0,0,172.644-62.964,211.455-51.32c38.811,11.643,53.419,49.815,41.775,73.103
			c-11.644,23.286-250.879,10.241-250.879,10.241L929.042,1810.992z"/>
		<path fill="#FFFFFF" d="M860.912,1484.023l56.072-6.745c0,0,1.343,22.309-23.227,26.016
			C863.798,1507.814,860.912,1484.023,860.912,1484.023z"/>
		<g>
			<polygon fill="#F2E9DA" points="903.972,1816.617 885.355,1838.044 887.149,1809.716 896.126,1803.49 			"/>
			<polygon fill="#E0D5C3" points="896.126,1803.49 898.145,1806.867 885.355,1838.044 887.149,1809.716 			"/>
			<polygon fill="#E8BA70" points="887.149,1809.716 886.685,1817.048 891.893,1811.662 932.873,1711.771 926.89,1712.846 			"/>
			<polygon fill="#F7CC7F" points="891.893,1811.662 892.919,1819.605 899.229,1814.671 940.209,1714.78 932.873,1711.771 			"/>
			<polygon fill="#FAE0B2" points="899.229,1814.671 899.153,1822.163 903.972,1816.617 943.712,1719.747 940.209,1714.78 			"/>
			
				<rect x="931.057" y="1712.988" transform="matrix(-0.3796 0.9252 -0.9252 -0.3796 2878.3994 1503.5601)" fill="#466EB6" width="7.95" height="7.93"/>
			<polygon fill="#88B5E2" points="937.191,1722.136 940.209,1714.78 943.712,1719.747 941.934,1724.082 			"/>
			<polygon fill="#2C4B70" points="925.112,1717.181 926.89,1712.846 932.873,1711.771 929.855,1719.126 			"/>
			
				<rect x="935.221" y="1722.758" transform="matrix(-0.9251 -0.3797 0.3797 -0.9251 1149.528 3681.584)" fill="#FEF8F8" width="5.127" height="9.37"/>
			
				<rect x="923.142" y="1717.803" transform="matrix(-0.9252 -0.3795 0.3795 -0.9252 1128.5677 3667.4146)" fill="#EDDFCA" width="5.127" height="9.37"/>
			
				<rect x="927.78" y="1720.28" transform="matrix(-0.9252 -0.3796 0.3796 -0.9252 1139.0557 3674.4976)" fill="#F2E9DA" width="7.93" height="9.37"/>
			<path fill="#DB3F2A" d="M891.673,1830.771c-0.064,0.073-6.318,7.272-6.318,7.272l0.609-9.614l2.213,2.735L891.673,1830.771z"/>
		</g>
		<path fill="#F7A491" d="M859.748,1830.998c0.539,2.256,3.083,5.677,6.19,5.263c0,0,1.546,0.141,1.775,0.652
			c0.204,0.456-0.292,3.11,0.323,5.605h90.635c0.25-0.072,0.503-0.146,0.767-0.22v-40.886c-6.843,0.897-11.94,1.419-12.647,1.082
			c-2.82-1.343-12.67-6.97-18.887-7.71s-16.706-4.777-19.745-4.238c-3.039,0.54-18.06,8.37-20.204,8.751
			c-2.146,0.381-4.362,2.435-5.665,3.403c-1.304,0.969-16.172,3.425-18.925,5.573c-2.753,2.149-2.48,10.952-0.427,13.168
			c0,0,0.232,0.789-1.076,1.989S859.209,1828.743,859.748,1830.998z"/>
	</g>
	<g>
		<path fill="#A34B3D" d="M1053.361,350.036c1.73,0.071,6.47,1.658,13.403,14.759c8.853,16.73,21.791,67.271,21.791,67.271
			l-38.621,14.383l-4.961-10.549l-8.172-81.212C1036.801,354.687,1052.882,350.016,1053.361,350.036z"/>
		<path fill="#B75742" d="M1002.308,342.751c11.044,0.015,38.37,3.237,51.053,7.289c0,0,9.317,80.08-8.388,140.93
			c-3.963,13.621,3.278,56.466,3.278,56.466l-114.439-1.51c0,0,13.558-103.579,8.45-120.309s-5.229-75.039-5.229-75.039
			s0.784-0.122,25.712-4.431C974.371,344.138,990.517,342.735,1002.308,342.751z"/>
		<path fill="#F7A491" d="M988.974,696.068c0,0,2.531,29.22,7.187,37.313c4.655,8.092-0.245,21.848-0.49,23.736
			s-9.8,4.585-24.989,2.967c-15.19-1.618-14.945-5.125-13.72-10.789c1.225-5.664,9.31-12.947,9.8-18.341
			c0.49-5.395-4.655-24.815-4.655-24.815L988.974,696.068z"/>
		<path fill="#E0973F" d="M1035.339,523.318c0,0,78.997-4.386,96.638,6.297s-12.533,63.117-12.533,63.117
			s-54.969-2.533-162.638,3.68c-25.496,1.472-27.694-66.48-22.926-72.103C938.647,518.687,1035.339,523.318,1035.339,523.318z"/>
		<path fill="#DD513A" d="M968.786,762.352c-15.642-1.667-13.707-9.351-12.446-15.184c0.79-3.652,5.277-7.958,7.952-12.03
			c1.398,1.113,3.672,3.08,10.465,5.086c7.054,2.084,16.723-2.04,22.884-4.623c2.196,8.173,2.296,18.596,2.091,20.176
			C999.48,757.723,984.427,764.019,968.786,762.352z"/>
		<path fill="#F7CC7F" d="M977.419,579.833c3.156,23.883,18.783,142.776,18.783,142.776l-36.259,4.496
			c0,0-44.589-155.184-42.302-178.92c2.287-23.736,18.977-25.733,18.977-25.733S969.065,516.611,977.419,579.833z"/>
		<path fill="#F7A491" d="M935.787,359.479c10.7-4.014,15.934,92.395,17.376,132.077c18.948,1.823,51.975,0.014,60.198-0.604
			c3.868-0.291,12.785-3.557,16.632-4.061c3.942-0.516,7.515-0.785,9.453-0.448c0.711,0.124,20.461,8.201,22.151,9.972
			c2.096,2.196,7.76,7.737,6.804,10.133c-0.956,2.396-10.894-6.676-10.894-6.676l-4.857-2.725
			c6.046,5.907,17.579,13.686,15.918,16.519c-1.621,2.763-12.023-5.132-19.438-10.512c6.359,5.744,14.26,16.023,12.44,17.625
			c-1.636,1.44-10.623-10.46-20.228-13.887c-3.56-1.27-7.107,2.247-9.907,2.672c-2.058,0.312-5.234,0.976-7.253,0.404l-10.399-2.95
			c-3.542,0.321-3.631,2.417-7.208,3.178c-4.153,0.884-10.967,1.814-16.256,3.107c-30.455,7.441-40.613,10.896-49.938,10.891
			C912.137,524.178,910.499,368.966,935.787,359.479z"/>
		<path fill="#A34B3D" d="M915.481,449.99c-2.004-40.646-1.711-90.746,21.074-99.293c8.991-3.373,24.839,16.906,21.989,100.119
			C946.38,451.82,928.522,452.629,915.481,449.99z"/>
		<path fill="#F7A491" d="M1098.79,724.405c0,0-5.235,9.247-1.115,17c4.12,7.753,25.738,19.16,27.991,23.364
			c2.253,4.204,1.37,7.179,1.37,7.179l-64.195-15.737l4.919-19.352l6.003-13.372L1098.79,724.405z"/>
		<path fill="#DD513A" d="M1100.984,745.543c0,0-18.044,3.125-25.201-2.582c-7.156-5.707-6.676-6.755-9.316-5.775
			c-1.697,0.631-4.28,8.337-5.908,13.762c-0.867,2.888,0.87,5.912,3.796,6.635l66.846,16.519c5.078,0.976,8.438-2.193,5.021-6.267
			c-2.343-2.793-5.28-4.959-6.899-6.419C1124.346,756.931,1100.984,745.543,1100.984,745.543z"/>
		<path fill="#F7CC7F" d="M1092.498,542.042c5.106-10.746,16.721-24.738,37.156-16.311c19.49,8.038,24.721,27.791,18.572,48.018
			c-6.149,20.227-46.632,139.133-48.043,155.482l-32.323,0.214c0,0,5.874-94.151,7.315-116.91
			C1076.562,590.638,1083.661,560.642,1092.498,542.042z"/>
		<path fill="#184655" d="M1144.972,432.526h-108.048c-2.859,0-5.434,1.733-6.519,4.387l-33.269,81.417h-59.567
			c-1.666,0-3.016,1.354-3.016,3.024l0,0c0,1.67,1.351,3.024,3.016,3.024h169.534c4.661,0,8.888-2.745,10.796-7.012l33.5-74.877
			C1153.491,437.813,1150.081,432.526,1144.972,432.526z"/>
		<path fill="#FFFFFF" d="M1086.798,479.936c-0.729,3.657-3.909,6.103-7.101,5.462c-3.192-0.641-5.188-4.124-4.458-7.781
			c0.73-3.657,3.909-6.103,7.101-5.462C1085.532,472.795,1087.528,476.278,1086.798,479.936z"/>
		<g>
			<path fill="#0E2E35" d="M1027.985,244.944c-3.256-1.096-6.462-2.334-9.558-3.827c-3.499-1.688-8.034-3.664-10.899-4.106
				c-6.03-0.931-16.389-0.311-22.109,5.896c-7.127,7.731-19.791,1.396-17.24,41.888c2.887,45.833,28.372,40.802,28.99,40.026
				c0.618-0.776,22.729-29.321,22.729-29.321s7.73,16.91,7.73,16.29C1027.628,311.189,1067.102,258.117,1027.985,244.944z"/>
			<path fill="#F7A491" d="M1008.639,328.205l2.2,16.377c0,0,4.928,23.594-1.412,28.143c-6.34,4.548-26.962-28.815-26.962-28.815
				l2.178-41.498L1008.639,328.205z"/>
			<path fill="#F47458" d="M983.939,315.86c5.237,14.154,17.711,22.854,26.565,26.229l-1.865-13.885l-23.996-25.793L983.939,315.86z
				"/>
			<path fill="#F7A491" d="M1007.336,257.254c13.435-2.169,25.485,8.636,25.149,22.084c-0.146,5.846-0.625,13.145-1.84,21.005
				c-2.921,18.905-15.819,35.551-24.348,34.065s-29.987-17.794-26.209-44.697C982.422,273.103,993.238,259.53,1007.336,257.254z"/>
			<path fill="#F7A491" d="M986.007,292.922c-0.72,4.157-4.05,7.049-7.438,6.458c-3.388-0.591-5.551-4.439-4.832-8.597
				s4.05-7.048,7.438-6.458S986.727,288.766,986.007,292.922z"/>
			<path fill="#0E2E35" d="M981.176,284.326c0,0,10.312,2.562,14.138-4.07c3.827-6.632,17.51-20.944,34.904-15.01
				s-15.307-14.428-16.698-14.428c-1.392,0-18.09-0.116-18.09-0.116s-12.872,10.588-13.335,11.752S977.92,276.3,977.92,276.3
				L981.176,284.326z"/>
		</g>
		<path fill="#FFFFFF" d="M1000.041,311.998l18.763,3.587c0,0-1.79,7.068-10.086,5.729
			C998.601,319.682,1000.041,311.998,1000.041,311.998z"/>
	</g>
	<rect x="220.333" y="1839.22" fill="#B75742" width="2711.591" height="9.424"/>
	<path fill="#F7CC7F" d="M748.863,993.793H436.61c-13.818,0-25.02,11.202-25.02,25.021v165.09c0,13.818,11.202,25.021,25.02,25.021
		h227.163c12.747,17.787,35.858,49.64,37.897,49.64c1.91,0-1.767-30.086-4.359-49.64h51.552c13.818,0,25.021-11.202,25.021-25.021
		v-165.09C773.884,1004.995,762.682,993.793,748.863,993.793z"/>
	<g>
		<path fill="#F7CC7F" d="M2325.023,1232.489c5.733-13.796,11.564-27.62,26.438-34.606c12.037-5.654,24.613-3.525,35.309,4.518
			c30.305,22.788,3.898,47.896,38.396,91.11c10.719,13.428,23.692,24.27,30.115,40.005c8.99,22.024-6.676,54.27-23.837,64.817
			c-82.112,50.472-120.196-74.824-118.651-98.529C2313.943,1282.168,2321.334,1241.37,2325.023,1232.489z"/>
		<path fill="#F7A491" d="M2239.809,1501.084c3.462-0.547,11.87-6.569,14.837-7.117c2.301-0.425,7.274-1.178,9.396-1.495
			c2.596-9.697,15.785-62.565,17.262-78.063c1.601-16.789,13.473-89.422,13.473-89.422l30.743,5.588
			c0,0-12.768,55.875-16.298,82.969c-3.032,23.271-28.565,75.593-31.811,81.114c-0.004,0.134-0.006,0.263-0.015,0.403
			c-0.494,8.213-4.45,5.476-4.45,5.476l-6.43,1.643c0,0-22.75,2.189-24.234,2.737
			C2240.798,1505.464,2236.347,1501.632,2239.809,1501.084z"/>
		<path fill="#3C8F7C" d="M2321.582,1282.528c-21.732,7.368-34.09,66.451-34.09,66.451s34.096,9.52,42.832,4.526
			c0,0,9.917-43.952,13.469-42.416L2321.582,1282.528z"/>
		<path fill="#F7A491" d="M2153.471,1603.163c-6.65,17.538-10.1,34.431-10.41,36.475c-0.15,0.981,1.238,5.749,1.108,6.77
			c-13.349,18.208-32.533,22.191-48.978,23.353c8.381-8.182,20.688-15.935,21.279-18.525c0.941-4.126,6.004-22.492,8.493-47.945
			C2135.193,1608.021,2142.133,1604.271,2153.471,1603.163z"/>
		<path fill="#355389" d="M2342.611,1406.96l29.371,82.72c0,0-47.198,8.885-64.843,12.12c-17.646,3.235-116.232,7.543-118.73,9.293
			c-1.854,1.299-22.22,67.167-31.316,103.487c-10.32,2.271-27.986-0.457-37.385-3.695c5.078-51.967,23.418-134.299,29.29-143.262
			C2158.563,1453.025,2342.611,1406.96,2342.611,1406.96z"/>
		<path fill="#F7A491" d="M2227.875,1639.425c-3.246,18.474-3.469,35.714-3.392,37.779c0.037,0.992,2.294,5.415,2.357,6.441
			c-9.699,20.387-27.798,27.895-43.733,32.116c6.699-9.607,17.336-19.528,17.431-22.185c0.151-4.229,1.683-23.219-0.642-48.687
			C2210.831,1647.621,2216.945,1642.638,2227.875,1639.425z"/>
		<path fill="#86B1F2" d="M2376.899,1411.254l11.392,19.457c17.345,29.624,4.049,67.735-27.954,80.152
			c-0.173,0.066-0.343,0.133-0.51,0.197c-16.726,6.485-112.76,29.189-114.886,31.377c-1.578,1.624-9.24,70.142-11.369,107.523
			c-9.713,4.164-27.576,4.795-37.415,3.375c-4.75-51.998-2.163-136.308,1.926-146.213
			C2204.742,1490.992,2376.899,1411.254,2376.899,1411.254z"/>
		<path fill="#13375B" d="M2223.012,1677.779c2.557-2.824,11.943,12.718,14.289,16.034c2.639,3.729,1.888,6.542,1.571,7.125
			c-0.833,1.538-50.334,30.661-62.405,32.734c-1.141,0.196-3.116-0.524-3.614-0.965c-4.718-4.177,16.999-35.015,26.751-39.066
			C2205.905,1691.022,2211.508,1690.484,2223.012,1677.779z"/>
		<path fill="#13375B" d="M2141.48,1640.197c3.041-2.295,9.35,14.73,11.031,18.428c1.894,4.158,0.629,6.779,0.209,7.293
			c-1.105,1.355-55.188,20.687-67.435,20.461c-1.156-0.021-2.962-1.099-3.368-1.625c-3.853-4.987,23.259-31.209,33.597-33.362
			C2122.196,1650,2127.801,1650.521,2141.48,1640.197z"/>
		<path fill="#50BFA5" d="M2342.191,1282.358L2342.191,1282.358L2342.191,1282.358c-0.563,0.004-1.367-0.194-2.191-0.453
			c-4.036-0.722-12.86-1.778-19.728,1.119c-8.351,3.523-21.292,36.443-20.521,70.234c0.31,5.166,0.622,9.791,0.889,13.015
			c2.108,25.525,9.432,73.422,9.827,73.677c9.961,6.411,70.066-18.446,74.197-23.906c4.131-5.461,6.566-71.806,8.575-75.114
			l3.948-57.699C2390.218,1281.149,2352.879,1282.282,2342.191,1282.358z"/>
		<path fill="#F7A491" d="M2366.551,1261.109c0,0-3.869,20.017-3.096,27.913c0.775,7.896-2.951,33.343-19.664,33.426
			c-16.713,0.084-3.173-32.353-1.599-40.09s1.946-31.688,1.946-31.688L2366.551,1261.109z"/>
		<path fill="#F47458" d="M2343.793,1262.687c0.261-6.552,0.346-12.017,0.346-12.017l22.412,10.439c0,0-0.791,4.094-1.587,9.309
			C2355.154,1272.389,2348.045,1268.758,2343.793,1262.687z"/>
		<path fill="#F7A491" d="M2374.742,1205.865c0,0,8.636,4.792,11.793,15.176s-0.436,37.179-22.745,43.645
			c-22.308,6.466-31.972-14.752-27.378-31.34C2341.007,1216.757,2351.002,1195.75,2374.742,1205.865z"/>
		
			<ellipse transform="matrix(-0.9952 0.0976 -0.0976 -0.9952 4785.2021 2218.7861)" fill="#F7A491" cx="2338.322" cy="1226.455" rx="4.722" ry="8.106"/>
		<path fill="#F7CC7F" d="M2372.126,1204.512c0,0,4.046,29.892,13.71,35.285c9.663,5.395,5.618,18.654,5.618,18.654
			s8.765-30.79,1.124-40.679C2384.937,1207.883,2372.126,1204.512,2372.126,1204.512z"/>
		
			<ellipse transform="matrix(-0.8297 -0.5583 0.5583 -0.8297 3667.2019 3613.5232)" fill="#F7A491" cx="2384.878" cy="1247.295" rx="5.745" ry="8.499"/>
		<path fill="#FFFFFF" d="M2347.607,1245.751l15.724,3.957c0,0-1.89,5.972-8.855,4.435
			C2345.982,1252.268,2347.607,1245.751,2347.607,1245.751z"/>
		<path fill="#F7A491" d="M2494.986,1495.119c-0.28-0.716-0.907-0.73-1.548-0.75c-6.222-0.19-12.437-0.469-18.605-1.392
			c-1.03-0.153-2.043-0.386-2.989-0.764c-1.717-0.685-3.411-0.669-5.144-0.188c-0.938,0.26-1.892,0.308-2.859,0.304
			c-3.127-0.014-12.052-3.051-16.636-3.851c-1.048-0.184-1.879-0.976-2.139-2.006c-4.511-17.837-14.185-57.856-15.439-71.016
			c-1.604-16.829-13.225-92.703-13.225-92.703l-31.094,8.671c0,0,12.798,56.007,16.336,83.164
			c2.731,20.971,23.689,65.47,30.259,78.266c3.211,9.523,10.411,9.788,12.084,9.992c0.957,0.117,1.836,0.587,2.464,1.319
			c1.136,1.322,2.436,2.473,3.922,3.412c1.104,0.696,1.952,1.603,2.68,2.663c1.32,1.93,2.501,3.944,3.67,5.966
			c0.775,1.341,1.588,1.765,2.737,1.449c1.234-0.339,1.822-1.25,1.799-2.754c-0.035-2.221-0.744-4.23-1.859-6.125
			c-1.045-1.774-0.968-2.807,0.249-4.439c0.699-0.938,1.419-1.85,2.336-2.596c0.934-0.759,1.914-1.335,3.18-1.157
			c2.234,0.558,4.489,1.011,6.781,1.264l1.881,0.384c0.065,0.01,1.025,0.218,1.025,0.218c0.159,0.041,3.468,0.403,4.6,0.405
			c0.911,0.001,2.385,0.062,3.638,0.122c1.136,0.056,3.534-0.538,3.616-0.54c1.105-0.024,2.082-0.424,2.905-1.164
			c0.337-0.303,0.661-0.643,0.49-1.157c-0.158-0.473-0.529-0.674-1.011-0.76c-0.747-0.135-4.607-0.604-4.564-0.768
			c1.146,0,4.737-0.085,5.884-0.115c1.545-0.041,2.884-0.595,3.949-1.737C2494.78,1496.284,2495.268,1495.837,2494.986,1495.119z"/>
		<path fill="#50BFA5" d="M2397.566,1283.107c15.346-2.79,28.006,65.872,28.006,65.872s-34.097,9.52-42.832,4.526
			c0,0-9.918-43.952-13.47-42.416L2397.566,1283.107z"/>
	</g>
	<path fill="#F47458" d="M2162.818,1378.518h85.779c2.27,0,4.314,1.376,5.175,3.482l26.413,64.639h47.291
		c1.322,0,2.394,1.074,2.394,2.4l0,0c0,1.326-1.071,2.4-2.394,2.4h-134.595c-3.7,0-7.056-2.179-8.571-5.566l-26.595-59.445
		C2156.055,1382.715,2158.762,1378.518,2162.818,1378.518z"/>
	<path fill="#FFFFFF" d="M2209.002,1416.156c0.579,2.903,3.104,4.845,5.637,4.337c2.534-0.509,4.119-3.274,3.54-6.178
		c-0.58-2.903-3.104-4.845-5.638-4.336C2210.007,1410.487,2208.423,1413.253,2209.002,1416.156z"/>
	<rect x="440.256" y="1042.768" opacity="0.8" fill="#FFFFFF" width="316.078" height="16.909"/>
	<rect x="482.478" y="1089.577" opacity="0.8" fill="#FFFFFF" width="231.633" height="16.909"/>
	<rect x="466.034" y="1136.684" opacity="0.8" fill="#FFFFFF" width="264.522" height="16.909"/>
</g>
</svg>
